<?xml version="1.0" encoding="UTF-8"?>
<svg width="16px" height="16px" viewBox="0 0 16 16" version="1.1" xmlns="http://www.w3.org/2000/svg" xmlns:xlink="http://www.w3.org/1999/xlink">
    <!-- Generator: Sketch 57.1 (83088) - https://sketch.com -->
    <title>icons/visitors</title>
    <desc>Created with Sketch.</desc>
    <g id="icons/visitors" stroke="none" stroke-width="1" fill="none" fill-rule="evenodd">
        <path d="M7.66665461,0 C5.78234811,0 4.24323738,1.51859814 4.24323738,3.37777167 C4.24323738,5.23694697 5.78234811,6.75554334 7.66665461,6.75554334 C9.55096111,6.75554334 11.0900718,5.23694697 11.0900718,3.37777167 C11.0900718,1.51859814 9.55096111,0 7.66665461,0 Z M7.66665461,7.11109825 C5.88203946,7.11109825 4.26509301,7.53066016 3.05517646,8.23887399 C1.84525991,8.94706827 1,9.98814194 1,11.1999797 L1,14.6777512 C1.00105464,14.915817 1.16188033,15.1243696 1.39414343,15.1888614 C3.16498978,15.6714561 5.09404989,15.9555267 7.10922319,16 C7.11297683,16 7.11673078,16 7.12048443,16 L8.21282479,16 C8.21657844,16 8.22033239,16 8.22408604,16 C10.2392593,15.9555267 12.1683194,15.6714561 13.9391658,15.1888614 C14.1714289,15.1243696 14.3322546,14.915817 14.3333092,14.6777512 L14.3333092,11.1999797 C14.3333092,9.98814194 13.4880493,8.94706827 12.2781328,8.23887399 C11.0682162,7.53066016 9.45126976,7.11109825 7.66665461,7.11109825 Z" fill="#243C56" fill-rule="nonzero"></path>
    </g>
</svg>