<?xml version="1.0" encoding="UTF-8"?>
<svg width="62px" height="89px" viewBox="0 0 62 89" version="1.1" xmlns="http://www.w3.org/2000/svg" xmlns:xlink="http://www.w3.org/1999/xlink">
    <!-- Generator: Sketch 57.1 (83088) - https://sketch.com -->
    <title>logo/appnroll</title>
    <desc>Created with Sketch.</desc>
    <g id="logo/appnroll" stroke="none" stroke-width="1" fill="none" fill-rule="evenodd">
        <g fill="#DA0F16">
            <polygon id="Fill-1" points="13 0 13 36 21 36 21 5.457504"></polygon>
            <polygon id="Fill-2" points="21 55 13 55 13 71.010696 21 79"></polygon>
            <polygon id="Fill-3" points="35 29.2545141 27 24 27 36 35 36"></polygon>
            <polygon id="Fill-4" points="27 55 27 84.9590164 30.9979184 89 35 84.9590164 35 55"></polygon>
            <polygon id="Fill-5" points="49 29.5340831 41 24 41 79 49 71.0677159"></polygon>
            <polygon id="Fill-6" points="54 66 62 58.0950645 62 18.514607 54 13"></polygon>
            <polygon id="Fill-7" points="0.00176967286 42 0 57.9071726 7.9363929 66 7.9363929 50.0904215 35 50.0904215 35 42"></polygon>
        </g>
    </g>
</svg>